<svg width="1920" height="660" viewBox="0 0 1920 660" fill="none" xmlns="http://www.w3.org/2000/svg">
<path d="M-0.5 290.379V290.707L-0.198345 290.837L754.59 617.016C885.668 673.661 1034.33 673.661 1165.41 617.016L1920.2 290.837L1920.5 290.707V290.379V0V-0.5H1920H0H-0.5V0V290.379Z" stroke="url(#paint0_linear_147_1846)"/>
<path d="M0 0H1920V279.5L1159.19 608.39C1032.08 663.339 887.917 663.339 760.805 608.39L0 279.5V0Z" fill="url(#paint1_linear_147_1846)"/>
<path d="M1434.89 498.569C1439.6 506.734 1441.96 510.817 1440.89 514.818C1439.82 518.819 1435.73 521.176 1427.57 525.89L1403.32 539.89C1395.16 544.604 1391.07 546.961 1387.07 545.889C1383.07 544.817 1380.71 540.734 1376 532.569L1362 508.321C1357.29 500.156 1354.93 496.073 1356 492.072C1357.07 488.071 1361.16 485.714 1369.32 481L1393.57 467C1401.73 462.286 1405.82 459.929 1409.82 461.001C1413.82 462.073 1416.18 466.156 1420.89 474.321L1434.89 498.569Z" fill="url(#paint2_linear_147_1846)"/>
<path d="M1608.79 455.186C1609.84 445.816 1610.37 441.132 1613.61 438.547C1616.84 435.963 1621.53 436.488 1630.9 437.539L1635.87 438.096C1645.24 439.147 1649.93 439.672 1652.51 442.909C1655.09 446.146 1654.57 450.831 1653.52 460.2L1652.96 465.174C1651.91 474.544 1651.39 479.228 1648.15 481.813C1644.91 484.397 1640.23 483.872 1630.86 482.821L1625.88 482.264C1616.51 481.213 1611.83 480.688 1609.25 477.451C1606.66 474.214 1607.19 469.529 1608.24 460.16L1608.79 455.186Z" fill="url(#paint3_linear_147_1846)"/>
<path d="M1448.68 349.337C1445.25 355.278 1443.54 358.249 1440.9 359.594C1439.65 360.231 1438.28 360.598 1436.88 360.671C1433.92 360.825 1430.95 359.11 1425.01 355.68C1419.07 352.25 1416.1 350.535 1414.75 347.898C1414.11 346.648 1413.75 345.277 1413.67 343.876C1413.52 340.919 1415.23 337.949 1418.66 332.008C1422.09 326.067 1423.81 323.096 1426.45 321.752C1427.7 321.114 1429.07 320.747 1430.47 320.674C1433.43 320.52 1436.4 322.235 1442.34 325.665C1448.28 329.095 1451.25 330.81 1452.59 333.447C1453.23 334.698 1453.6 336.068 1453.67 337.469C1453.83 340.426 1452.11 343.396 1448.68 349.337Z" fill="url(#paint4_linear_147_1846)"/>
<defs>
<linearGradient id="paint0_linear_147_1846" x1="2.12145e-05" y1="148.112" x2="1920" y2="156.491" gradientUnits="userSpaceOnUse">
<stop stop-color="#D351B8"/>
<stop offset="0.5" stop-color="#8B50BA"/>
<stop offset="1" stop-color="#554EBB"/>
</linearGradient>
<linearGradient id="paint1_linear_147_1846" x1="2.12145e-05" y1="146" x2="1920" y2="154.5" gradientUnits="userSpaceOnUse">
<stop stop-color="#D351B8"/>
<stop offset="0.5" stop-color="#8B50BA"/>
<stop offset="1" stop-color="#554EBB"/>
</linearGradient>
<linearGradient id="paint2_linear_147_1846" x1="1437.25" y1="502.654" x2="1378.31" y2="536.567" gradientUnits="userSpaceOnUse">
<stop stop-color="#D351B8"/>
<stop offset="0.5" stop-color="#8B50BA"/>
<stop offset="1" stop-color="#554EBB"/>
</linearGradient>
<linearGradient id="paint3_linear_147_1846" x1="1609.9" y1="445.362" x2="1654.61" y2="450.444" gradientUnits="userSpaceOnUse">
<stop stop-color="#D351B8"/>
<stop offset="0.5" stop-color="#8B50BA"/>
<stop offset="1" stop-color="#554EBB"/>
</linearGradient>
<linearGradient id="paint4_linear_147_1846" x1="1443.91" y1="357.599" x2="1413.92" y2="340.224" gradientUnits="userSpaceOnUse">
<stop stop-color="#D351B8"/>
<stop offset="0.5" stop-color="#8B50BA"/>
<stop offset="1" stop-color="#554EBB"/>
</linearGradient>
</defs>
</svg>
