<svg width="40" height="21" viewBox="0 0 40 21" fill="none" xmlns="http://www.w3.org/2000/svg">
<path d="M30 5.3335H5V15.3335H30V5.3335Z" fill="#435161"/>
<path fill-rule="evenodd" clip-rule="evenodd" d="M1.46453 1.79761C2.40203 0.860107 3.67401 0.333374 5 0.333374H30C31.326 0.333374 32.598 0.860107 33.5354 1.79761C34.4732 2.73572 35 4.00709 35 5.33337V15.3334C35 16.6597 34.4732 17.931 33.5354 18.8692C32.598 19.8066 31.326 20.3334 30 20.3334H5C3.67401 20.3334 2.40203 19.8066 1.46453 18.8692C0.526733 17.931 0 16.6597 0 15.3334V5.33337C0 4.00709 0.526733 2.73572 1.46453 1.79761ZM31.7679 3.5658C31.2988 3.09704 30.6631 2.83337 30 2.83337H5C4.33686 2.83337 3.70117 3.09704 3.23212 3.5658C2.76337 4.03454 2.5 4.67053 2.5 5.33337V15.3334C2.5 15.6044 2.54394 15.8705 2.62787 16.1232C2.74963 16.4882 2.95502 16.8238 3.23212 17.1009C3.70117 17.5697 4.33686 17.8334 5 17.8334H30C30.6631 17.8334 31.2988 17.5697 31.7679 17.1009C32.0562 16.8123 32.2671 16.4607 32.3864 16.078C32.4609 15.8394 32.5 15.5885 32.5 15.3334V5.33337C32.5 4.67053 32.2367 4.03454 31.7679 3.5658Z" fill="#435161"/>
<path d="M39.0237 12.6902C39.6487 12.0652 40 11.2172 40 10.3335C40 9.44966 39.6487 8.60168 39.0237 7.97668C38.3984 7.35114 37.5507 7.00012 36.6667 7.00012V13.6668C37.5507 13.6668 38.3984 13.3158 39.0237 12.6902Z" fill="#435161"/>
</svg>
