<svg width="32" height="40" viewBox="0 0 32 40" fill="none" xmlns="http://www.w3.org/2000/svg">
<path d="M6.74595 15.0486L10.9233 11.1049C13.466 8.74378 13.9589 7.13514 13.9589 5.37081C13.9589 2.07568 11.2606 0 7.21297 0C3.94378 0 1.40108 1.32324 0 3.37297L3.06162 5.34486C3.94378 4.12541 5.26703 3.52865 6.82378 3.52865C8.74378 3.52865 9.72973 4.35892 9.72973 5.78595C9.72973 6.66811 9.44432 7.60216 7.83568 9.13297L0.830269 15.7492V18.4735H14.5557V15.0486H6.74595ZM24.0232 18.7849C28.5118 18.7849 31.8069 15.3859 31.8069 9.39243C31.8069 3.39892 28.5118 0 24.0232 0C19.5605 0 16.2394 3.39892 16.2394 9.39243C16.2394 15.3859 19.5605 18.7849 24.0232 18.7849ZM24.0232 15.2303C21.9475 15.2303 20.4945 13.5178 20.4945 9.39243C20.4945 5.26703 21.9475 3.55459 24.0232 3.55459C26.1248 3.55459 27.5778 5.26703 27.5778 9.39243C27.5778 13.5178 26.1248 15.2303 24.0232 15.2303Z" fill="#435161"/>
<path d="M13.5096 36.2464L13.4903 27.2688L9.04449 34.6985H7.92338L3.47758 27.3849V36.2464H1.08072V22.7026H3.14898L8.52259 31.6802L13.7996 22.7026H15.8678L15.8872 36.2464H13.5096ZM25.0316 25.7984C26.0367 25.7984 26.9323 26.0176 27.7184 26.4562C28.5173 26.8948 29.1423 27.5139 29.5934 28.3136C30.0444 29.1133 30.2699 30.0356 30.2699 31.0804C30.2699 32.1252 30.0444 33.0539 29.5934 33.8666C29.1423 34.6662 28.5173 35.2854 27.7184 35.724C26.9323 36.1626 26.0367 36.3818 25.0316 36.3818C23.6399 36.3818 22.5381 35.9175 21.7262 34.9887V39.9999H19.3101V25.9144H21.6103V27.2688C22.0097 26.7787 22.4994 26.4111 23.0793 26.166C23.672 25.9209 24.3228 25.7984 25.0316 25.7984ZM24.761 34.3116C25.6501 34.3116 26.3781 34.0149 26.9452 33.4215C27.5251 32.8282 27.8151 32.0478 27.8151 31.0804C27.8151 30.113 27.5251 29.3327 26.9452 28.7393C26.3781 28.1459 25.6501 27.8493 24.761 27.8493C24.1811 27.8493 23.6592 27.9847 23.1953 28.2556C22.7314 28.5135 22.3641 28.8877 22.0935 29.3778C21.8229 29.8679 21.6876 30.4355 21.6876 31.0804C21.6876 31.7253 21.8229 32.2929 22.0935 32.7831C22.3641 33.2732 22.7314 33.6537 23.1953 33.9246C23.6592 34.1825 24.1811 34.3116 24.761 34.3116Z" fill="#435161"/>
</svg>
