<svg width="40" height="22" viewBox="0 0 40 22" fill="none" xmlns="http://www.w3.org/2000/svg">
<path d="M14.0391 9.99885C15.5505 9.06873 16.4225 7.64447 16.4225 5.81329C16.4225 2.23812 13.2252 0 8.54553 0C3.92397 0 0.726661 2.23812 0.726661 5.81329C0.726661 7.64447 1.56959 9.06873 3.08104 9.99885C1.13359 10.9871 0 12.6148 0 14.7948C0 18.6316 3.40077 21.0441 8.54553 21.0441C13.7193 21.0441 17.1492 18.6316 17.1492 14.7948C17.1492 12.6148 16.0156 10.9871 14.0391 9.99885ZM8.54553 3.45891C10.4639 3.45891 11.7428 4.4181 11.7428 6.01675C11.7428 7.55727 10.493 8.51647 8.54553 8.51647C6.62715 8.51647 5.40636 7.55727 5.40636 6.01675C5.40636 4.4181 6.65621 3.45891 8.54553 3.45891ZM8.54553 17.5852C6.22022 17.5852 4.76689 16.4516 4.76689 14.6495C4.76689 12.8474 6.22022 11.7428 8.54553 11.7428C10.8999 11.7428 12.3823 12.8474 12.3823 14.6495C12.3823 16.4516 10.8999 17.5852 8.54553 17.5852ZM34.5064 20.6953H40L31.0766 9.41752L39.5059 0.348797H34.2739L25.2633 9.85352V0.348797H20.5836V20.6953H25.2633V15.5505L27.9956 12.702L34.5064 20.6953Z" fill="#435161"/>
</svg>
