<svg width="612" height="826" viewBox="0 0 612 826" fill="none" xmlns="http://www.w3.org/2000/svg">
<path d="M231.887 112.837C333.576 78.0315 384.42 60.6287 426.823 81.4065C469.227 102.184 486.629 153.029 521.435 254.717L571.324 400.472C606.129 502.16 623.532 553.004 602.754 595.408C581.977 637.811 531.132 655.214 429.444 690.02L283.689 739.908C182.001 774.714 131.156 792.117 88.7531 771.339C46.3497 750.561 28.9469 699.717 -5.85881 598.028L-55.7473 452.274C-90.553 350.585 -107.956 299.741 -87.178 257.338C-66.4001 214.934 -15.5559 197.531 86.1327 162.726L231.887 112.837Z" fill="url(#paint0_linear_147_1790)"/>
<path d="M348.298 148.331C446.329 192.4 495.344 214.434 512.108 258.578C528.871 302.723 506.837 351.738 462.769 449.768L369.924 656.301C325.856 754.332 303.821 803.347 259.677 820.111C215.532 836.875 166.517 814.84 68.4867 770.772L-138.046 677.927C-236.077 633.859 -285.092 611.824 -301.856 567.68C-318.619 523.536 -296.585 474.52 -252.517 376.49L-159.672 169.957C-115.604 71.9266 -93.5693 22.9113 -49.4248 6.14753C-5.28033 -10.6163 43.7349 11.418 141.765 55.4865L348.298 148.331Z" fill="url(#paint1_linear_147_1790)"/>
<defs>
<linearGradient id="paint0_linear_147_1790" x1="-96.1318" y1="231.542" x2="611.72" y2="232.602" gradientUnits="userSpaceOnUse">
<stop stop-color="#D351B8"/>
<stop offset="0.5" stop-color="#8B50BA"/>
<stop offset="1" stop-color="#554EBB"/>
</linearGradient>
<linearGradient id="paint1_linear_147_1790" x1="-307.47" y1="185.997" x2="517.737" y2="187.233" gradientUnits="userSpaceOnUse">
<stop stop-color="#D351B8"/>
<stop offset="0.5" stop-color="#8B50BA"/>
<stop offset="1" stop-color="#554EBB"/>
</linearGradient>
</defs>
</svg>
